#!OML:ASF H:\MichaelJackson\Top Level 1\Subject 1\Session 1\male.ASF
:FULLY-SPECIFIED
:DEGREES
624
root -7.81438 17.1751 29.6292 -363.917 25.0006 -8.93226
lowerback 10.148 -5.80731 -2.83387
upperback 2.5103 -7.95279 0.778655
thorax -2.53206 -3.94303 3.31208
lowerneck -6.9145 -4.66266 1.65237
upperneck 0.893307 -6.52072 5.3234
head 1.58459 -3.12964 1.1636
rclavicle -6.97734e-014 -7.95139e-015
rhumerus -64.3797 -22.1409 -56.558
rradius 62.6933
rwrist -13.7688
rhand -21.3111 -31.0917
rfingers 7.12502
rthumb 5.07395 -61.0109
lclavicle -6.97734e-014 -7.95139e-015
lhumerus -42.3104 -48.4838 116.921
lradius 48.379
lwrist 17.5198
lhand 35.7243 29.1729
lfingers 7.12502
lthumb 58.7663 44.1862
rfemur -84.7705 -34.3075 37.8146
rtibia 104
rfoot 27.7524 29.301
rtoes -18.6024
lfemur -19.7799 20.6408 -14.0342
ltibia 36.6958
lfoot -14.9626 10.1439
ltoes -1.44882
625
root -7.85373 17.1858 29.6595 -363.618 25.4767 -8.62012
lowerback 9.80775 -5.86704 -3.15121
upperback 2.40797 -8.05983 0.734377
thorax -2.40687 -3.99807 3.41528
lowerneck -6.78262 -4.8281 1.51727
upperneck 0.806835 -6.7213 5.3144
head 1.54214 -3.23496 1.18
rclavicle 7.53394e-014 -1.11319e-014
rhumerus -64.067 -21.7931 -57.8552
rradius 64.093
rwrist -12.6809
rhand -22.9256 -33.0066
rfingers 7.12502
rthumb 3.51491 -62.9573
lclavicle 7.53394e-014 -1.11319e-014
lhumerus -42.5661 -47.6573 117.011
lradius 47.9628
lwrist 17.9583
lhand 35.5709 29.0766
lfingers 7.12502
lthumb 58.6334 44.2158
rfemur -82.3017 -34.8824 35.9172
rtibia 104.778
rfoot 29.069 27.1163
rtoes -16.8983
lfemur -19.6979 21.9803 -14.2851
ltibia 36.3261
lfoot -14.7003 11.7837
ltoes -1.77468
626
root -7.89149 17.1923 29.691 -363.307 25.9188 -8.27763
lowerback 9.45959 -5.93592 -3.46679
upperback 2.29839 -8.17682 0.679153
thorax -2.28477 -4.05792 3.50556
lowerneck -6.66483 -4.97617 1.38081
upperneck 0.767478 -6.90156 5.28977
head 1.51671 -3.32894 1.19182
rclavicle 6.54002e-014 -1.59028e-015
rhumerus -63.6948 -21.2892 -59.183
rradius 65.5613
rwrist -11.2853
rhand -24.1237 -34.8159
rfingers 7.12502
rthumb 2.35791 -64.7826
lclavicle 6.54002e-014 -1.59028e-015
lhumerus -42.8239 -46.7899 117.056
lradius 47.5557
lwrist 18.4296
lhand 35.3725 29.0479
lfingers 7.12502
lthumb 58.4612 44.3482
rfemur -79.5088 -35.282 33.8129
rtibia 105.093
rfoot 30.2201 24.3919
rtoes -15.0152
lfemur -19.6407 23.4059 -14.5532
ltibia 35.9953
lfoot -14.5318 12.9973
ltoes -2.13979
627
root -7.92673 17.196 29.7234 -362.973 26.358 -7.94089
lowerback 9.07264 -6.02781 -3.72564
upperback 2.17293 -8.31602 0.619977
thorax -2.16347 -4.12884 3.55821
lowerneck -6.55869 -5.11013 1.23869
upperneck 0.785625 -7.06608 5.25535
head 1.51162 -3.41359 1.20127
rclavicle 5.74488e-014 -1.11319e-014
rhumerus -63.2957 -20.6457 -60.5015
rradius 67.1113
rwrist -9.72109
rhand -24.9286 -36.2721
rfingers 7.12502
rthumb 1.58051 -66.2459
lclavicle 5.74488e-014 -1.11319e-014
lhumerus -43.0894 -45.9096 117.075
lradius 47.1452
lwrist 18.8742
lhand 35.1541 29.0904
lfingers 7.12502
lthumb 58.2713 44.5659
rfemur -76.4731 -35.4767 31.5865
rtibia 104.939
rfoot 31.2648 21.0531
rtoes -12.6024
lfemur -19.6623 24.8114 -14.8308
ltibia 35.7148
lfoot -14.4414 13.7489
ltoes -2.3955
628
root -7.95878 17.1973 29.7563 -362.612 26.8157 -7.63366
lowerback 8.6267 -6.14618 -3.89152
upperback 2.03095 -8.47836 0.562358
thorax -2.03705 -4.21154 3.55659
lowerneck -6.47614 -5.23655 1.0863
upperneck 0.867339 -7.22393 5.21717
head 1.53152 -3.4931 1.2102
rclavicle 6.65929e-015 -1.59028e-015
rhumerus -62.9068 -19.8892 -61.7726
rradius 68.7741
rwrist -8.12764
rhand -25.3403 -37.2857
rfingers 7.12502
rthumb 1.18287 -67.2622
lclavicle 6.65929e-015 -1.59028e-015
lhumerus -43.3557 -45.0484 117.085
lradius 46.7195
lwrist 19.2427
lhand 34.9333 29.1807
lfingers 7.12502
lthumb 58.079 44.831
rfemur -73.2666 -35.4479 29.32
rtibia 104.331
rfoot 32.1123 17.205
rtoes -9.58051
lfemur -19.7954 26.0959 -15.118
ltibia 35.4951
lfoot -14.3907 14.0963
ltoes -2.61708
